<svg xmlns="http://www.w3.org/2000/svg" xmlns:xlink="http://www.w3.org/1999/xlink" width="279" zoomAndPan="magnify" viewBox="0 0 209.25 209.249995" height="279" preserveAspectRatio="xMidYMid meet" version="1.0"><defs><clipPath id="c6052d090a"><path d="M 0 0 L 208.488281 0 L 208.488281 208.488281 L 0 208.488281 Z M 0 0 " clip-rule="nonzero"/></clipPath><clipPath id="6f60db9417"><path d="M 27.863281 20.746094 L 180.316406 20.746094 L 180.316406 184 L 27.863281 184 Z M 27.863281 20.746094 " clip-rule="nonzero"/></clipPath><clipPath id="d8eb8c695f"><path d="M 52 119 L 109 119 L 109 186 L 52 186 Z M 52 119 " clip-rule="nonzero"/></clipPath><clipPath id="aad329208a"><path d="M 72.191406 119.636719 L 108.785156 133.277344 L 89.429688 185.199219 L 52.835938 171.558594 Z M 72.191406 119.636719 " clip-rule="nonzero"/></clipPath><clipPath id="6598e90426"><path d="M 62.265625 108.046875 L 104.992188 108.046875 L 104.992188 180.308594 L 62.265625 180.308594 Z M 62.265625 108.046875 " clip-rule="nonzero"/></clipPath><clipPath id="63aa6e6b82"><path d="M 83.628906 108.046875 L 104.992188 144.160156 L 83.628906 180.277344 L 62.265625 144.160156 Z M 83.628906 108.046875 " clip-rule="nonzero"/></clipPath><clipPath id="1c44b50f2f"><path d="M 68.371094 124.46875 L 91.230469 124.46875 L 91.230469 163.929688 L 68.371094 163.929688 Z M 68.371094 124.46875 " clip-rule="nonzero"/></clipPath><clipPath id="82ad996a71"><path d="M 79.800781 124.46875 L 91.230469 144.160156 L 79.800781 163.855469 L 68.371094 144.160156 Z M 79.800781 124.46875 " clip-rule="nonzero"/></clipPath><clipPath id="f34ff0dea7"><path d="M 79.046875 103.648438 L 87.386719 103.648438 L 87.386719 110.253906 L 79.046875 110.253906 Z M 79.046875 103.648438 " clip-rule="nonzero"/></clipPath><clipPath id="7b5382b240"><path d="M 77.167969 177.660156 L 89.269531 177.660156 L 89.269531 187.738281 L 77.167969 187.738281 Z M 77.167969 177.660156 " clip-rule="nonzero"/></clipPath></defs><g clip-path="url(#c6052d090a)"><path fill="#070f2b" d="M 0 0 L 208.488281 0 L 208.488281 208.488281 L 0 208.488281 Z M 0 0 " fill-opacity="1" fill-rule="nonzero"/></g><g clip-path="url(#6f60db9417)"><path fill="#ffffff" d="M 165.722656 180.386719 L 104.597656 20.761719 L 101.519531 20.761719 L 53.371094 156.203125 C 49.644531 166.824219 46.371094 173.960938 40.796875 177.363281 C 37.488281 179.386719 33.351562 179.515625 27.863281 179.84375 L 27.863281 183.90625 C 27.863281 183.90625 28.886719 183.890625 29.28125 183.90625 C 39.613281 184.25 46.613281 181.324219 50.277344 174.402344 C 51.203125 172.652344 55.128906 164.777344 57.328125 159.058594 L 60.539062 150.300781 C 60.773438 151.351562 61.101562 152.378906 61.511719 153.375 C 61.925781 154.375 62.417969 155.328125 62.992188 156.242188 C 63.570312 157.152344 64.21875 158.011719 64.941406 158.8125 C 65.664062 159.617188 66.449219 160.351562 67.296875 161.015625 C 68.144531 161.683594 69.042969 162.277344 69.992188 162.789062 C 70.941406 163.304688 71.925781 163.734375 72.949219 164.078125 C 73.96875 164.421875 75.015625 164.679688 76.082031 164.84375 C 77.148438 165.011719 78.21875 165.085938 79.300781 165.070312 C 80.066406 165.070312 80.828125 165.027344 81.589844 164.9375 C 82.351562 164.847656 83.105469 164.71875 83.851562 164.539062 C 84.597656 164.363281 85.332031 164.144531 86.050781 163.882812 C 86.773438 163.621094 87.472656 163.316406 88.160156 162.972656 C 88.84375 162.628906 89.507812 162.246094 90.148438 161.824219 C 90.789062 161.40625 91.402344 160.949219 91.988281 160.453125 C 92.574219 159.960938 93.132812 159.4375 93.65625 158.878906 C 94.183594 158.320312 94.675781 157.734375 95.132812 157.117188 C 95.589844 156.503906 96.007812 155.863281 96.390625 155.199219 C 96.773438 154.535156 97.117188 153.851562 97.417969 153.144531 C 97.71875 152.441406 97.980469 151.722656 98.199219 150.988281 C 98.417969 150.253906 98.59375 149.507812 98.726562 148.753906 C 98.855469 147.996094 98.945312 147.238281 98.988281 146.472656 C 99.03125 145.707031 99.027344 144.941406 98.980469 144.175781 C 98.933594 143.410156 98.84375 142.652344 98.710938 141.898438 C 98.574219 141.144531 98.394531 140.398438 98.171875 139.664062 C 97.953125 138.929688 97.6875 138.214844 97.382812 137.511719 C 97.074219 136.808594 96.730469 136.125 96.34375 135.460938 C 95.957031 134.800781 95.535156 134.160156 95.074219 133.546875 C 94.617188 132.9375 94.121094 132.351562 93.59375 131.796875 C 93.066406 131.242188 92.507812 130.71875 91.917969 130.226562 C 91.328125 129.738281 90.710938 129.28125 90.070312 128.863281 C 89.429688 128.445312 88.765625 128.066406 88.078125 127.726562 C 87.390625 127.386719 86.6875 127.085938 85.964844 126.828125 C 85.242188 126.566406 84.507812 126.351562 83.761719 126.179688 C 83.015625 126.007812 82.261719 125.878906 81.5 125.792969 C 80.738281 125.707031 79.972656 125.667969 79.207031 125.671875 C 78.441406 125.675781 77.675781 125.726562 76.917969 125.820312 C 76.15625 125.914062 75.402344 126.050781 74.65625 126.230469 C 73.914062 126.414062 73.179688 126.636719 72.460938 126.902344 C 71.746094 127.171875 71.042969 127.476562 70.359375 127.828125 C 69.679688 128.175781 69.019531 128.5625 68.378906 128.988281 L 88.769531 71.113281 L 109.433594 129.15625 L 110.753906 132.675781 L 127.683594 180.386719 L 109.433594 180.386719 L 109.433594 183.90625 L 180.671875 183.90625 L 180.671875 180.386719 Z M 95.109375 145.257812 C 95.109375 146.28125 95.011719 147.289062 94.8125 148.292969 C 94.613281 149.292969 94.320312 150.265625 93.929688 151.207031 C 93.539062 152.152344 93.0625 153.046875 92.496094 153.898438 C 91.929688 154.746094 91.289062 155.53125 90.570312 156.253906 C 89.847656 156.980469 89.066406 157.625 88.21875 158.195312 C 87.371094 158.761719 86.476562 159.246094 85.535156 159.640625 C 84.59375 160.03125 83.625 160.332031 82.625 160.535156 C 81.625 160.738281 80.613281 160.839844 79.59375 160.847656 C 78.574219 160.851562 77.5625 160.757812 76.558594 160.5625 C 75.558594 160.367188 74.585938 160.078125 73.640625 159.695312 C 72.695312 159.308594 71.796875 158.835938 70.945312 158.273438 C 70.09375 157.714844 69.304688 157.074219 68.578125 156.359375 C 67.851562 155.640625 67.199219 154.859375 66.625 154.015625 C 66.054688 153.171875 65.566406 152.28125 65.167969 151.339844 C 64.769531 150.402344 64.46875 149.433594 64.257812 148.433594 C 64.050781 147.433594 63.941406 146.425781 63.933594 145.40625 C 63.921875 144.382812 64.011719 143.371094 64.203125 142.371094 C 64.390625 141.367188 64.675781 140.390625 65.054688 139.445312 C 65.4375 138.5 65.90625 137.597656 66.464844 136.742188 C 67.019531 135.886719 67.65625 135.097656 68.367188 134.367188 C 69.082031 133.636719 69.859375 132.980469 70.699219 132.40625 C 71.542969 131.828125 72.429688 131.335938 73.367188 130.933594 C 74.304688 130.53125 75.273438 130.222656 76.273438 130.011719 C 77.269531 129.796875 78.277344 129.683594 79.300781 129.671875 C 80.320312 129.652344 81.332031 129.734375 82.335938 129.914062 C 83.339844 130.097656 84.316406 130.375 85.265625 130.746094 C 86.214844 131.121094 87.117188 131.582031 87.976562 132.132812 C 88.832031 132.6875 89.628906 133.316406 90.363281 134.023438 C 91.097656 134.730469 91.753906 135.503906 92.335938 136.34375 C 92.917969 137.179688 93.414062 138.066406 93.820312 139.003906 C 94.226562 139.9375 94.539062 140.902344 94.753906 141.902344 C 94.972656 142.898438 95.089844 143.90625 95.109375 144.925781 C 95.109375 145.035156 95.109375 145.148438 95.109375 145.257812 Z M 95.109375 145.257812 " fill-opacity="1" fill-rule="nonzero"/></g><g clip-path="url(#d8eb8c695f)"><g clip-path="url(#aad329208a)"><path fill="#070f2b" d="M 72.191406 119.636719 L 108.785156 133.277344 L 89.441406 185.167969 L 52.847656 171.527344 Z M 72.191406 119.636719 " fill-opacity="1" fill-rule="nonzero"/></g></g><g clip-path="url(#6598e90426)"><g clip-path="url(#63aa6e6b82)"><path fill="#ffffff" d="M 62.265625 108.046875 L 104.992188 108.046875 L 104.992188 180.308594 L 62.265625 180.308594 Z M 62.265625 108.046875 " fill-opacity="1" fill-rule="nonzero"/></g></g><g clip-path="url(#1c44b50f2f)"><g clip-path="url(#82ad996a71)"><path fill="#070f2b" d="M 68.371094 124.46875 L 91.230469 124.46875 L 91.230469 163.839844 L 68.371094 163.839844 Z M 68.371094 124.46875 " fill-opacity="1" fill-rule="nonzero"/></g></g><g clip-path="url(#f34ff0dea7)"><path fill="#070f2b" d="M 87.386719 103.648438 L 87.386719 110.253906 L 79.050781 110.253906 L 79.050781 103.648438 Z M 87.386719 103.648438 " fill-opacity="1" fill-rule="nonzero"/></g><g clip-path="url(#7b5382b240)"><path fill="#070f2b" d="M 89.269531 177.660156 L 89.269531 187.738281 L 77.179688 187.738281 L 77.179688 177.660156 Z M 89.269531 177.660156 " fill-opacity="1" fill-rule="nonzero"/></g></svg>